<svg width="168" height="48" viewBox="0 0 168 48" fill="none" xmlns="http://www.w3.org/2000/svg">
<g clip-path="url(#clip0_1009_861)">
<path d="M60.8398 30.9905C63.0976 30.9905 64.8497 30.3869 66.0961 29.1797C67.3424 27.9725 67.9656 26.2726 67.9656 24.08C67.9656 21.9006 67.3424 20.2072 66.0961 19C64.8497 17.7928 63.0976 17.1892 60.8398 17.1892H56.9637C56.5853 17.1892 56.2884 17.2936 56.073 17.5024C55.8577 17.7112 55.75 18.0049 55.75 18.3833V29.7963C55.75 30.1748 55.8577 30.4684 56.073 30.6772C56.2884 30.8861 56.5853 30.9905 56.9637 30.9905H60.8398ZM60.6832 28.935H58.2753V19.2447H60.6832C63.8546 19.2447 65.4403 20.8565 65.4403 24.08C65.4403 27.3167 63.8546 28.935 60.6832 28.935ZM74.7781 31.1471C75.2871 31.1471 75.8222 31.072 76.3834 30.922C76.9446 30.7719 77.447 30.5728 77.8908 30.3249C78.3736 30.0508 78.6151 29.7115 78.6151 29.3069C78.6151 29.0198 78.5466 28.7914 78.4095 28.6217C78.2725 28.4521 78.0931 28.3672 77.8712 28.3672C77.6885 28.3672 77.4014 28.4717 77.0098 28.6805C76.6053 28.8632 76.2431 29.0067 75.9233 29.1111C75.6036 29.2156 75.2349 29.2678 74.8173 29.2678C73.9951 29.2678 73.3686 29.0557 72.938 28.6315C72.5073 28.2074 72.2528 27.545 72.1745 26.6445H77.9495C78.4454 26.6445 78.6934 26.3639 78.6934 25.8028C78.6934 24.8631 78.5172 24.0474 78.1648 23.3557C77.8125 22.664 77.3165 22.1289 76.677 21.7505C76.0375 21.372 75.2871 21.1828 74.4258 21.1828C73.5253 21.1828 72.7194 21.3916 72.0081 21.8092C71.2968 22.2268 70.7454 22.8141 70.3539 23.5711C69.9624 24.328 69.7666 25.1959 69.7666 26.1747C69.7666 27.7147 70.2169 28.9284 71.1174 29.8159C72.0179 30.7033 73.2381 31.1471 74.7781 31.1471ZM76.5987 25.3329H72.1745C72.2528 24.5499 72.491 23.9495 72.889 23.5319C73.2871 23.1143 73.8189 22.9055 74.4845 22.9055C75.137 22.9055 75.646 23.111 76.0114 23.5221C76.3769 23.9332 76.5726 24.5368 76.5987 25.3329ZM84.1552 31.1471C85.382 31.1471 86.364 30.8795 87.1014 30.3445C87.8388 29.8094 88.2075 29.0981 88.2075 28.2106C88.2075 27.6625 88.0998 27.2122 87.8844 26.8599C87.6691 26.5075 87.3135 26.2139 86.8175 25.9789C86.3216 25.744 85.6364 25.5352 84.762 25.3525C83.9398 25.1828 83.3852 25.0132 83.0981 24.8435C82.8109 24.6739 82.6674 24.4259 82.6674 24.0996C82.6674 23.7603 82.8077 23.4928 83.0883 23.297C83.3689 23.1012 83.7506 23.0033 84.2335 23.0033C84.6381 23.0033 84.9774 23.0523 85.2514 23.1502C85.5255 23.2481 85.8518 23.3949 86.2303 23.5906C86.4391 23.7081 86.612 23.7962 86.749 23.8549C86.8861 23.9136 87.0264 23.943 87.1699 23.943C87.3787 23.943 87.5549 23.8549 87.6985 23.6787C87.842 23.5025 87.9138 23.2839 87.9138 23.0229C87.9138 22.5922 87.705 22.2464 87.2874 21.9854C86.8828 21.7244 86.426 21.5253 85.917 21.3883C85.4081 21.2513 84.8795 21.1828 84.3314 21.1828C83.5744 21.1828 82.899 21.31 82.3052 21.5645C81.7114 21.819 81.2448 22.1779 80.9055 22.6412C80.5662 23.1045 80.3965 23.6233 80.3965 24.1975C80.3965 24.9545 80.6478 25.5483 81.1502 25.9789C81.6527 26.4096 82.4847 26.7424 83.6462 26.9773C84.2987 27.1209 84.7849 27.2481 85.1046 27.3591C85.4244 27.47 85.6462 27.5907 85.7702 27.7212C85.8942 27.8517 85.9562 28.0279 85.9562 28.2498C85.9562 28.5761 85.8028 28.8306 85.4961 29.0133C85.1895 29.196 84.762 29.2873 84.2139 29.2873C83.6788 29.2873 83.2383 29.2351 82.8925 29.1307C82.5467 29.0263 82.1649 28.8762 81.7473 28.6805C81.3558 28.4717 81.0491 28.3672 80.8272 28.3672C80.6184 28.3672 80.4422 28.4488 80.2986 28.6119C80.1551 28.7751 80.0833 28.9872 80.0833 29.2482C80.0833 29.705 80.2921 30.0573 80.7098 30.3053C81.5842 30.8665 82.7326 31.1471 84.1552 31.1471ZM91.3984 19.4796C91.8421 19.4796 92.1945 19.3589 92.4555 19.1175C92.7165 18.876 92.847 18.5595 92.847 18.168C92.847 17.7765 92.7133 17.4633 92.4457 17.2283C92.1782 16.9934 91.8291 16.876 91.3984 16.876C90.9547 16.876 90.6023 16.9934 90.3413 17.2283C90.0803 17.4633 89.9497 17.7765 89.9497 18.168C89.9497 18.5595 90.0803 18.876 90.3413 19.1175C90.6023 19.3589 90.9547 19.4796 91.3984 19.4796ZM91.3984 31.1079C91.7508 31.1079 92.0444 31.0068 92.2793 30.8045C92.5142 30.6022 92.6317 30.3118 92.6317 29.9333V22.3769C92.6317 21.9984 92.5142 21.7113 92.2793 21.5156C92.0444 21.3198 91.7508 21.2219 91.3984 21.2219C91.046 21.2219 90.7556 21.3198 90.5272 21.5156C90.2989 21.7113 90.1847 21.9984 90.1847 22.3769V29.9333C90.1847 30.3118 90.2989 30.6022 90.5272 30.8045C90.7556 31.0068 91.046 31.1079 91.3984 31.1079ZM99.5225 34.6708C101.154 34.6708 102.387 34.2858 103.222 33.5158C104.058 32.7458 104.475 31.6104 104.475 30.1095V22.3769C104.475 22.0245 104.364 21.7439 104.143 21.5351C103.921 21.3263 103.627 21.2219 103.262 21.2219C102.896 21.2219 102.603 21.3263 102.381 21.5351C102.159 21.7439 102.048 22.018 102.048 22.3573V22.8663C101.761 22.3312 101.343 21.9169 100.795 21.6232C100.247 21.3296 99.6204 21.1828 98.9157 21.1828C98.0804 21.1828 97.3365 21.3818 96.684 21.7798C96.0314 22.1779 95.5257 22.7391 95.1668 23.4634C94.8079 24.1877 94.6285 25.0197 94.6285 25.9594C94.6285 26.899 94.8112 27.7278 95.1766 28.4456C95.542 29.1634 96.0478 29.7213 96.6938 30.1193C97.3398 30.5174 98.0804 30.7164 98.9157 30.7164C99.6204 30.7164 100.247 30.5696 100.795 30.2759C101.343 29.9823 101.761 29.5679 102.048 29.0328V30.2857C102.048 31.9562 101.193 32.7915 99.4834 32.7915C99.0005 32.7915 98.5731 32.7393 98.2011 32.6349C97.8292 32.5305 97.4083 32.3804 96.9385 32.1846C96.7558 32.1063 96.5796 32.0378 96.4099 31.9791C96.2403 31.9203 96.0967 31.891 95.9792 31.891C95.7574 31.891 95.5779 31.9758 95.4409 32.1455C95.3039 32.3151 95.2353 32.5435 95.2353 32.8306C95.2353 33.2352 95.4768 33.5811 95.9597 33.8682C96.9124 34.4033 98.1 34.6708 99.5225 34.6708ZM99.5617 28.8175C98.7917 28.8175 98.1848 28.563 97.7411 28.054C97.2974 27.545 97.0755 26.8468 97.0755 25.9594C97.0755 25.0589 97.2974 24.3541 97.7411 23.8451C98.1848 23.3361 98.7917 23.0817 99.5617 23.0817C100.345 23.0817 100.955 23.3361 101.392 23.8451C101.829 24.3541 102.048 25.0589 102.048 25.9594C102.048 26.8468 101.829 27.545 101.392 28.054C100.955 28.563 100.345 28.8175 99.5617 28.8175ZM114.753 31.1079C115.131 31.1079 115.428 31.0035 115.644 30.7947C115.859 30.5859 115.967 30.2988 115.967 29.9333V25.1176C115.967 23.7995 115.686 22.8141 115.125 22.1616C114.564 21.509 113.709 21.1828 112.56 21.1828C111.869 21.1828 111.249 21.3263 110.701 21.6134C110.152 21.9006 109.715 22.3117 109.389 22.8467V22.3182C109.389 21.9919 109.281 21.7276 109.066 21.5253C108.851 21.3231 108.573 21.2219 108.234 21.2219C107.856 21.2219 107.555 21.3263 107.333 21.5351C107.112 21.7439 107.001 22.018 107.001 22.3573V29.9333C107.001 30.2988 107.108 30.5859 107.324 30.7947C107.539 31.0035 107.836 31.1079 108.214 31.1079C108.593 31.1079 108.893 31.0035 109.115 30.7947C109.337 30.5859 109.448 30.2988 109.448 29.9333V25.5678C109.448 24.8239 109.66 24.2301 110.084 23.7864C110.508 23.3427 111.073 23.1208 111.777 23.1208C112.378 23.1208 112.818 23.2905 113.099 23.6298C113.379 23.9691 113.52 24.5107 113.52 25.2546V29.9333C113.52 30.2988 113.631 30.5859 113.852 30.7947C114.074 31.0035 114.374 31.1079 114.753 31.1079ZM129.063 30.9905C131.321 30.9905 133.073 30.3869 134.319 29.1797C135.566 27.9725 136.189 26.2726 136.189 24.08C136.189 21.9006 135.566 20.2072 134.319 19C133.073 17.7928 131.321 17.1892 129.063 17.1892H125.187C124.809 17.1892 124.512 17.2936 124.296 17.5024C124.081 17.7112 123.973 18.0049 123.973 18.3833V29.7963C123.973 30.1748 124.081 30.4684 124.296 30.6772C124.512 30.8861 124.809 30.9905 125.187 30.9905H129.063ZM128.907 28.935H126.499V19.2447H128.907C132.078 19.2447 133.664 20.8565 133.664 24.08C133.664 27.3167 132.078 28.935 128.907 28.935ZM141.572 31.1471C142.199 31.1471 142.75 31.0035 143.227 30.7164C143.703 30.4293 144.052 30.0312 144.274 29.5222V29.9529C144.274 30.2922 144.382 30.5663 144.597 30.7751C144.812 30.9839 145.09 31.0883 145.429 31.0883C145.794 31.0883 146.081 30.9872 146.29 30.7849C146.499 30.5826 146.603 30.3053 146.603 29.9529V25.1763C146.603 23.8321 146.28 22.8304 145.634 22.1714C144.988 21.5123 144 21.1828 142.669 21.1828C142.055 21.1828 141.432 21.2545 140.799 21.3981C140.166 21.5417 139.621 21.7374 139.165 21.9854C138.903 22.1289 138.717 22.2823 138.607 22.4454C138.496 22.6086 138.44 22.8011 138.44 23.0229C138.44 23.297 138.515 23.5189 138.665 23.6885C138.815 23.8582 139.008 23.943 139.243 23.943C139.399 23.943 139.647 23.8582 139.987 23.6885C140.522 23.4797 140.985 23.3198 141.377 23.2089C141.768 23.098 142.153 23.0425 142.532 23.0425C143.145 23.0425 143.589 23.1893 143.863 23.483C144.137 23.7766 144.274 24.2432 144.274 24.8827V25.3329H143.784C142.362 25.3329 141.246 25.4243 140.437 25.607C139.628 25.7897 139.044 26.0833 138.685 26.4879C138.326 26.8925 138.147 27.4472 138.147 28.1519C138.147 28.7131 138.297 29.2221 138.597 29.6789C138.897 30.1356 139.308 30.4945 139.83 30.7556C140.352 31.0166 140.933 31.1471 141.572 31.1471ZM142.062 29.3852C141.631 29.3852 141.269 29.2514 140.975 28.9839C140.682 28.7164 140.535 28.3738 140.535 27.9561C140.535 27.6168 140.639 27.3493 140.848 27.1535C141.057 26.9578 141.403 26.8207 141.886 26.7424C142.368 26.6641 143.047 26.625 143.922 26.625H144.274V27.0361C144.274 27.7278 144.068 28.2922 143.657 28.7294C143.246 29.1666 142.714 29.3852 142.062 29.3852ZM150.303 19.4796C150.747 19.4796 151.1 19.3589 151.361 19.1175C151.622 18.876 151.752 18.5595 151.752 18.168C151.752 17.7765 151.618 17.4633 151.351 17.2283C151.083 16.9934 150.734 16.876 150.303 16.876C149.86 16.876 149.507 16.9934 149.246 17.2283C148.985 17.4633 148.855 17.7765 148.855 18.168C148.855 18.5595 148.985 18.876 149.246 19.1175C149.507 19.3589 149.86 19.4796 150.303 19.4796ZM150.303 31.1079C150.656 31.1079 150.949 31.0068 151.184 30.8045C151.419 30.6022 151.537 30.3118 151.537 29.9333V22.3769C151.537 21.9984 151.419 21.7113 151.184 21.5156C150.949 21.3198 150.656 21.2219 150.303 21.2219C149.951 21.2219 149.661 21.3198 149.432 21.5156C149.204 21.7113 149.09 21.9984 149.09 22.3769V29.9333C149.09 30.3118 149.204 30.6022 149.432 30.8045C149.661 31.0068 149.951 31.1079 150.303 31.1079ZM155.276 31.1079C155.628 31.1079 155.922 31.0068 156.157 30.8045C156.392 30.6022 156.509 30.3118 156.509 29.9333V18.2463C156.509 17.8678 156.392 17.5807 156.157 17.385C155.922 17.1892 155.628 17.0913 155.276 17.0913C154.923 17.0913 154.633 17.1892 154.405 17.385C154.176 17.5807 154.062 17.8678 154.062 18.2463V29.9333C154.062 30.3118 154.176 30.6022 154.405 30.8045C154.633 31.0068 154.923 31.1079 155.276 31.1079ZM161.384 34.6121C161.853 34.6121 162.199 34.3902 162.421 33.9465L167.765 22.7489C167.844 22.5922 167.883 22.4422 167.883 22.2986C167.883 21.9984 167.762 21.7472 167.521 21.5449C167.279 21.3426 167.008 21.2415 166.708 21.2415C166.499 21.2415 166.307 21.297 166.131 21.4079C165.955 21.5188 165.814 21.6917 165.71 21.9267L162.989 27.9561L160.248 21.9071C160.144 21.6722 160 21.4992 159.817 21.3883C159.635 21.2774 159.432 21.2219 159.211 21.2219C158.884 21.2219 158.594 21.3263 158.339 21.5351C158.085 21.7439 157.958 21.9984 157.958 22.2986C157.958 22.4683 157.99 22.6183 158.056 22.7489L161.697 30.3249L160.366 33.1243C160.287 33.307 160.248 33.4701 160.248 33.6137C160.248 33.9008 160.362 34.139 160.591 34.3282C160.819 34.5175 161.083 34.6121 161.384 34.6121Z" fill="#202142"/>
<path d="M2.65149 9.27883C8.94192 -1.61651 25.5697 -2.14614 36.465 4.14429C47.3604 10.4347 51.0934 24.3665 44.803 35.2619C38.5126 46.1572 23.8689 51.3405 12.9735 45.05C2.07818 38.7596 -3.63894 20.1742 2.65149 9.27883ZM26.4527 15.9882C26.0054 15.9882 25.6506 16.1231 25.3884 16.393C25.1637 16.6244 25.0353 16.9209 25.0032 17.2826L24.9951 17.4688V25.9827C24.9951 27.3709 24.6635 28.4274 24.0003 29.1523C23.3371 29.8772 22.3731 30.2397 21.1084 30.2397C19.8282 30.2397 18.8565 29.8811 18.1933 29.1639C17.5811 28.5018 17.2514 27.5474 17.2043 26.3005L17.1984 25.9827V17.4688C17.1984 17.0215 17.0673 16.6629 16.8051 16.393C16.5429 16.1231 16.1882 15.9882 15.7409 15.9882C15.2936 15.9882 14.9389 16.1231 14.6767 16.393C14.4519 16.6244 14.3235 16.9209 14.2914 17.2826L14.2834 17.4688V25.8208C14.2834 28.0418 14.8617 29.7307 16.0185 30.8875C17.1753 32.0443 18.8719 32.6226 21.1084 32.6226C23.3294 32.6226 25.0183 32.0404 26.175 30.8759C27.2638 29.7799 27.8402 28.2228 27.9042 26.2046L27.9102 25.8208V17.4688C27.9102 17.0215 27.7791 16.6629 27.5169 16.393C27.2547 16.1231 26.9 15.9882 26.4527 15.9882ZM32.815 15.9882C32.3677 15.9882 32.0091 16.1231 31.7392 16.393C31.5078 16.6244 31.3756 16.9209 31.3425 17.2826L31.3343 17.4688V31.0494C31.3343 31.4967 31.4692 31.8592 31.7392 32.1368C32.0091 32.4144 32.3677 32.5532 32.815 32.5532C33.2777 32.5532 33.644 32.4144 33.9139 32.1368C34.1453 31.8988 34.2775 31.5985 34.3105 31.2359L34.3188 31.0494V17.4688C34.3188 17.0215 34.1838 16.6629 33.9139 16.393C33.644 16.1231 33.2777 15.9882 32.815 15.9882Z" fill="#202142"/>
</g>
<defs>
<clipPath id="clip0_1009_861">
<rect width="168" height="48" fill="white"/>
</clipPath>
</defs>
</svg>
